<svg width="20" height="21" viewBox="0 0 20 21" fill="none" xmlns="http://www.w3.org/2000/svg">
<g clip-path="url(#clip0_915:608)">
<path d="M19.7556 19.4952L14.0682 13.8198C15.1699 12.4619 15.8332 10.7365 15.8332 8.85718C15.8332 4.50153 12.2815 0.957458 7.91656 0.957458C3.55161 0.957458 0 4.50149 0 8.85714C0 13.2128 3.55165 16.7569 7.9166 16.7569C9.7999 16.7569 11.5291 16.095 12.8899 14.9956L18.5773 20.671C18.7398 20.8331 18.9531 20.9146 19.1665 20.9146C19.3798 20.9146 19.5932 20.8331 19.7557 20.671C20.0815 20.3458 20.0815 19.8203 19.7556 19.4952ZM7.9166 15.0938C4.46996 15.0938 1.66666 12.2964 1.66666 8.85714C1.66666 5.41784 4.46996 2.62053 7.9166 2.62053C11.3632 2.62053 14.1665 5.41784 14.1665 8.85714C14.1665 12.2964 11.3632 15.0938 7.9166 15.0938Z" fill="#585050"/>
</g>
<defs>
<clipPath id="clip0_915:608">
<rect width="20" height="19.9574" fill="white" transform="translate(0 0.957336)"/>
</clipPath>
</defs>
</svg>
